<svg fill="none" xmlns="http://www.w3.org/2000/svg" viewBox="0 0 25 24" class="fields__icon--ybJYO"><path d="M11.667 13V8c0-1.10457.8954-2 2-2h7c1.1046 0 2 .89543 2 2v11c0 .5523-.4477 1-1 1s-1-.4477-1-1v-3H4.66699v3c0 .5523-.44771 1-1 1-.55228 0-1-.4477-1-1V5c0-.55228.44772-1 1-1 .55229 0 1 .44772 1 1v8H11.667Z" fill="#6CC2B7"></path><path d="M8.16699 12C9.5477 12 10.667 10.8807 10.667 9.5c0-1.38071-1.1193-2.5-2.50001-2.5s-2.5 1.11929-2.5 2.5c0 1.3807 1.11929 2.5 2.5 2.5Z" fill="#6CC2B7"></path></svg>