<svg fill="none" xmlns="http://www.w3.org/2000/svg" viewBox="0 0 24 24" class="fields__mapPin--Quwe6"><path fill-rule="evenodd" clip-rule="evenodd" d="M20 9c0 .75667-.1051 1.4888-.3014 2.1826-1.3444 5.1323-6.7408 10.294-7.0106 10.55-.1891.1778-.4262.2674-.688.2674-.2618 0-.4989-.0896-.688-.2674-.2697-.2547-5.66292-5.4153-7.00942-10.5457C4.10549 10.4918 4 9.75823 4 9c0-4.41828 3.58172-8 8-8 4.4183 0 8 3.58172 8 8Zm-8 4c2.2091 0 4-1.7909 4-4 0-2.20914-1.7909-4-4-4-2.20914 0-4 1.79086-4 4 0 2.2091 1.79086 4 4 4Z" fill="#6CC2B7"></path></svg>