<svg fill="none" xmlns="http://www.w3.org/2000/svg" viewBox="0 0 24 24" class="fields__icon--ybJYO"><path fill-rule="evenodd" clip-rule="evenodd" d="M12 22c5.5228 0 10-4.4772 10-10 0-5.52285-4.4772-10-10-10C6.47715 2 2 6.47715 2 12c0 5.5228 4.47715 10 10 10Zm3.3908-4.728H8.19918v-1.5809c1.30194-.155 1.84442-.868 1.84442-1.7979 0-.465-.124-.961-.37199-1.5035H7.7962v-1.6429h1.16245c-.1085-.4495-.18599-.96095-.18599-1.44143 0-1.82891 1.27094-3.30134 3.53384-3.30134 2.0149 0 3.3168 1.14694 3.3168 3.11535h-1.8909c-.1395-.79046-.6045-1.41043-1.5034-1.41043-.992 0-1.4259.72846-1.4259 1.64292 0 .40298.0775.91443.2634 1.34843h2.5264v1.6894h-1.9374c.186.4805.3565 1.0695.3565 1.6429 0 .558-.124 1.0695-.527 1.55.2077 0 .4071-.0041.6004-.0081.1819-.0038.3583-.0074.5311-.0074h2.7743v1.7049Z" fill="#6CC2B7"></path></svg>