<svg width="1060" height="260" fill="none" xmlns="http://www.w3.org/2000/svg"><g clip-path="url(#a)"><g clip-path="url(#b)"><path d="M477.017-60.023c4.742 4.751 4.742 12.454 0 17.206l-60.85 60.977c-4.742 4.752-12.429 4.752-17.17 0-4.742-4.752-4.742-12.455 0-17.206l60.85-60.977c4.742-4.752 12.429-4.752 17.17 0zM1005.41 64.145c-4.74 4.752-12.427 4.752-17.169 0-4.741-4.752-4.741-12.455 0-17.206 4.742-4.752 12.429-4.752 17.169 0 4.74 4.751 4.74 12.454 0 17.206zM885.219 184.588c-4.741 4.751-12.428 4.751-17.17 0-4.742-4.752-4.742-12.455 0-17.206 4.742-4.752 12.429-4.752 17.17 0 4.742 4.751 4.742 12.454 0 17.206zM1014-13.283l-77.269 77.428c-4.742 4.751-12.429 4.751-17.171 0-4.742-4.752-4.742-12.455 0-17.206l77.267-77.428c4.743-4.751 12.433-4.751 17.173 0 4.74 4.752 4.74 12.455 0 17.206zm-85.855-51.618c4.742-4.752 4.742-12.455 0-17.206-4.741-4.752-12.428-4.752-17.17 0l-94.437 94.633c-4.742 4.752-4.742 12.455 0 17.207 4.742 4.751 12.429 4.751 17.17 0l94.437-94.634zM799.368 64.145c4.741-4.752 4.741-12.455 0-17.206-4.742-4.752-12.429-4.752-17.171 0l-42.926 43.015c-4.741 4.752-4.741 12.455 0 17.206 4.742 4.752 12.429 4.752 17.171 0l42.926-43.015zm-60.097-25.809c4.742 4.751 4.742 12.454 0 17.206l-47.266 47.427c-4.742 4.752-12.429 4.752-17.171 0-4.741-4.751-4.741-12.454 0-17.206l47.267-47.427c4.741-4.752 12.429-4.752 17.17 0z" fill="#FAFAFA"/><path d="M816.538-21.886c4.742-4.751 4.742-12.454 0-17.206-4.742-4.752-12.429-4.752-17.17 0L756.442 3.923c-4.742 4.752-4.742 12.455 0 17.206 4.741 4.752 12.428 4.752 17.17 0l42.926-43.015z" fill="#F68744"/><path d="M659.271-19.314c4.742 4.752 4.742 12.455 0 17.207l-94.437 94.633c-4.741 4.752-12.428 4.752-17.17 0-4.742-4.751-4.742-12.454 0-17.206l94.437-94.633c4.741-4.752 12.429-4.752 17.17 0zm284.531-9.643c4.741 4.752 4.741 12.455 0 17.206l-84.338 84.499c-4.742 4.752-12.429 4.752-17.171 0-4.741-4.752-4.741-12.455 0-17.206l84.338-84.499c4.742-4.751 12.429-4.751 17.171 0zM901.561 99.385c5.199-5.208 5.57-13.282.829-18.034-4.742-4.752-12.799-4.382-17.998.826l-84.713 84.875c-5.199 5.209-5.57 13.283-.829 18.035 4.742 4.752 12.799 4.382 17.997-.827l84.714-84.875z" fill="#FAFAFA"/><path d="m1057.49-22.618-37.27 37.359c-4.75 4.751-4.75 12.454 0 17.206 4.74 4.751 12.42 4.751 17.17 0l37.27-37.359c4.74-4.751 4.74-12.454 0-17.206-4.75-4.751-12.43-4.751-17.17 0z" fill="#F68744"/><path d="M1070.8 50.19c4.75 4.752 4.75 12.455 0 17.206l-79.633 79.764c-4.741 4.752-12.428 4.752-17.17 0-4.742-4.752-4.742-12.455 0-17.206l79.633-79.764c4.75-4.752 12.43-4.752 17.17 0zm52.53 16.263c4.74 4.751 4.74 12.454 0 17.206l-96.98 97.149c-4.74 4.752-12.43 4.752-17.17 0-4.74-4.751-4.74-12.454 0-17.206l96.98-97.15c4.74-4.75 12.43-4.75 17.17 0zM184.367-24.855c4.742-4.752 4.742-12.455 0-17.206-4.742-4.752-12.429-4.752-17.17 0L124.271.954c-4.742 4.752-4.742 12.455 0 17.206 4.741 4.752 12.428 4.752 17.17 0l42.926-43.015zM107.1 35.366c4.742 4.752 4.742 12.455 0 17.206l-59.342 59.466c-4.741 4.752-12.428 4.751-17.17 0-4.742-4.752-4.742-12.455 0-17.206L89.93 35.366c4.742-4.751 12.429-4.751 17.17 0zm396.28-52.963c4.742 4.751 4.742 12.454 0 17.206l-72.027 72.2c-4.742 4.75-12.429 4.75-17.17 0-4.742-4.752-4.742-12.455 0-17.207l72.027-72.2c4.742-4.751 12.429-4.751 17.17 0zM295.975 104.191c-4.742 4.751-4.742 12.454 0 17.206 4.741 4.751 12.428 4.751 17.17 0l68.681-68.825c4.742-4.751 4.742-12.454 0-17.206-4.741-4.752-12.428-4.752-17.17 0l-68.681 68.825zm-8.586-94.634c4.742-4.752 4.742-12.455 0-17.206-4.741-4.752-12.429-4.752-17.17 0l-47.267 47.428c-4.741 4.751-4.741 12.454 0 17.206 4.742 4.751 12.429 4.751 17.171 0l47.266-47.428z" fill="#FAFAFA"/><path d="M870.975 233.191c-4.742 4.751-4.742 12.454 0 17.206 4.742 4.752 12.429 4.752 17.17 0l68.682-68.824c4.741-4.752 4.741-12.455 0-17.207-4.742-4.751-12.429-4.751-17.171 0l-68.681 68.825z" fill="#F68744"/><path d="m919.56 150.176 51.511-51.619c4.742-4.751 4.742-12.454 0-17.206-4.741-4.752-12.428-4.752-17.17 0l-51.511 51.618c-4.742 4.752-4.742 12.455 0 17.207 4.741 4.751 12.428 4.751 17.17 0z" fill="#A7DAD4"/><path d="M825.123 107.16c4.742-4.752 4.742-12.454 0-17.206-4.741-4.752-12.428-4.752-17.17 0l-24.816 24.931c-4.742 4.751-4.742 12.454 0 17.206 4.741 4.751 12.428 4.751 17.17 0l24.816-24.931z" fill="#F68744"/><path d="M722.101 124.366c4.742 4.752 4.742 12.455 0 17.206l-49.342 49.466c-4.742 4.752-12.429 4.752-17.17 0-4.742-4.752-4.742-12.455 0-17.206l49.342-49.466c4.741-4.751 12.428-4.751 17.17 0zm42.926-163.458c4.741-4.752 4.741-12.455 0-17.206-4.742-4.752-12.429-4.752-17.171 0L670.59 21.13c-4.742 4.751-4.742 12.454 0 17.206 4.741 4.751 12.429 4.751 17.17 0l77.267-77.428z" fill="#A7DAD4"/><path d="M647.419 60.893c4.742 4.751 4.742 12.454 0 17.206-4.741 4.751-12.428 4.751-17.17 0-4.742-4.752-4.742-12.455 0-17.206 4.742-4.752 12.429-4.752 17.17 0zM107.101-50.664c4.741-4.752 12.428-4.752 17.17 0 4.742 4.751 4.742 12.454 0 17.206L57.004 33.969c-4.741 4.752-12.428 4.752-17.17 0-4.742-4.751-4.742-12.454 0-17.206l67.267-67.427z" fill="#F68744"/><path d="M208.717 19.566c5.517-5.527 6.146-13.86 1.406-18.612-4.741-4.752-13.056-4.124-18.573 1.403l-75.413 75.527c-5.517 5.527-6.146 13.859-1.406 18.611 4.741 4.753 13.056 4.125 18.573-1.402l75.413-75.527z" fill="#A7DAD4"/><path d="M562.677-25.587c4.742-4.752 12.429-4.752 17.17 0 4.742 4.751 4.742 12.454 0 17.206l-72.064 72.193c-4.741 4.752-12.428 4.752-17.17 0-4.742-4.751-4.742-12.454 0-17.206l72.064-72.193z" fill="#F68744"/><path d="M304.559 61.175 349 16.629c4.741-4.751 4.741-12.454 0-17.206-4.742-4.752-12.429-4.752-17.171 0l-44.44 44.547c-4.741 4.752-4.741 12.455 0 17.206 4.742 4.752 12.429 4.752 17.17 0z" fill="#A7DAD4"/><path d="M270.219 95.588c-4.742 4.751-12.429 4.751-17.171 0-4.741-4.752-4.741-12.455 0-17.206 4.742-4.752 12.429-4.752 17.171 0 4.741 4.751 4.741 12.454 0 17.206z" fill="#F68744"/></g></g><defs><clipPath id="a"><path fill="#fff" d="M0 0h1060v260H0z"/></clipPath><clipPath id="b"><path transform="rotate(135 1724.5 -170)" fill="#fff" d="M1724.5-170h1548.56v1548.56H1724.5z"/></clipPath></defs></svg>