<svg fill="none" xmlns="http://www.w3.org/2000/svg" viewBox="0 0 16 16" class="BillsLabel__icon--inO78"><path fill-rule="evenodd" clip-rule="evenodd" d="M7.54864.11417C7.69155.03871 7.84866 0 8.00705 0c.1584 0 .31551.03871.45841.11417.14301.07552.26888.18637.36528.3255l4.04046 5.82134.0015.00212C13.6062 7.30423 14.002 8.55784 14 9.84644c-.0003 1.52736-.5558 2.99566-1.5519 4.12236-.9907 1.1205-2.3468 1.8242-3.80655 1.9847l-.02998.005a2.8635 2.8635 0 0 1-.13619.0177C8.36116 15.9885 8.20083 16 8 16c-.17226 0-.33298-.0118-.44859-.0232a5.2312 5.2312 0 0 1-.14174-.016 7.4287 7.4287 0 0 1-.04151-.0056l-.00351-.0005c-1.03377-.1123-2.02297-.498-2.86942-1.1214-.84974-.6259-1.52682-1.4703-1.9608-2.4513-.43407-.9813-.60886-2.0632-.5055-3.13706.10334-1.07364.48074-2.09849 1.09188-2.97268L7.18335.43969l.0006-.00086c.09632-.13874.22197-.2493.36469-.32466Zm.45212 7.85317h3.00544L8.00076 12.9051V9.7168H4.99392l3.00684-4.93772v3.18826Z" fill="#4AB1A4"></path></svg>