<svg fill="none" xmlns="http://www.w3.org/2000/svg" viewBox="0 0 64 64" class="UspSectionWithAdditionalPoint__icon--jjJkL"><path d="M31 28.5V11c0-2.20914 1.7909-4 4-4h20c2.2091 0 4 1.79086 4 4v43c0 2.2091-1.7909 4-4 4H31" stroke="#FFA15E" stroke-width="3"></path><path d="M38.0059 21.0066h-.0057M45.0117 21.0066h-.0057M52.0176 21.0066h-.0057M38.0059 28.0022h-.0057M45.0117 28.0022h-.0057M52.0176 28.0022h-.0057M38.0059 35.0022h-.0057M45.0117 35.0022h-.0057M52.0176 35.0022h-.0057M45.0117 35.0066h-.0057M52.0176 35.0066h-.0057M38.0059 28.011h-.0057M45.0117 28.011h-.0057M52.0176 28.011h-.0057M45.0117 42.0066h-.0057M52.0176 42.0066h-.0057M38.0059 14.0022h-.0057M45.0117 14.0022h-.0057M52.0176 14.0022h-.0057M18.9827 22.6019 4.80199 36.1595c-.65181.6232-.21073 1.7229.69105 1.7229h1.37875c.55229 0 1 .4477 1 1V54c0 2.2091 1.79087 4 4.00001 4H32.1181c2.2092 0 4-1.7909 4-4V38.8824c0-.5523.4477-1 1-1h1.3317c.9093 0 1.3467-1.1154.6797-1.7335L24.4658 22.5593c-1.5514-1.4378-3.9542-1.4191-5.4831.0426Z" stroke="#EC6B1E" stroke-width="3" stroke-linecap="round" stroke-linejoin="round"></path><path d="M17 56.5V46c0-1.6569 1.3431-3 3-3h4c1.6569 0 3 1.3431 3 3v10.5" stroke="#FFA15E" stroke-width="3"></path></svg>