<svg fill="none" xmlns="http://www.w3.org/2000/svg" viewBox="0 0 64 64" class="UspSectionWithAdditionalPoint__icon--jjJkL"><g clip-path="url(#i1002834)"><path d="m46.8478 44.3791.49 1.4177-.49-1.4177c-2.9904 1.0335-6.2717 1.6059-9.7187 1.6059-14.3052 0-25.4514-9.7392-25.4514-21.2425 0-7.4391 4.6109-14.0948 11.7829-17.9178C27.4002 4.72471 32.0867 3.5 37.1291 3.5c5.0424 0 9.7288 1.22471 13.6684 3.3247 7.172 3.823 11.7829 10.4787 11.7829 17.9178 0 3.2548-.8778 6.3433-2.4583 9.1125-.3002.526-.4804 1.1377-.4804 1.7836v13.3576c0 .3762-.4.6177-.7329.4424l-9.2255-4.8564c-.8956-.4715-1.9247-.5179-2.8355-.2031Z" stroke="#FFA15E" stroke-width="3" stroke-linecap="round"></path><circle cx="28.5556" cy="25.0112" r="2.1435" fill="#EC6B1E"></circle><circle cx="37.1298" cy="25.0112" r="2.1435" fill="#EC6B1E"></circle><circle cx="45.7031" cy="25.0112" r="2.1435" fill="#EC6B1E"></circle><path d="M32.6315 52.0979c-2.9475 4.0402-8.2543 6.7359-14.311 6.7359-2.1266 0-4.1607-.3323-6.0327-.9385-.5434-.1759-1.1367-.1455-1.6426.1195l-5.80193 3.0386c-.66583.3488-1.46395-.1342-1.46395-.8858v-8.4521c0-.3669-.1042-.725-.28156-1.0462-.99286-1.7982-1.54698-3.8019-1.54698-5.9142 0-4.0057 1.99261-7.6206 5.19105-10.1843" stroke="#EC6B1E" stroke-width="3" stroke-linecap="round"></path></g><defs><clipPath id="i1002834"><path fill="#fff" d="M0 0h64v64H0z"></path></clipPath></defs></svg>