<svg fill="none" xmlns="http://www.w3.org/2000/svg" viewBox="0 0 64 64" class="UspSectionWithAdditionalPoint__icon--jjJkL"><path d="M30.9415 60.5706c.6834.2902 1.4336.2902 2.117.0001C38.3061 58.3432 55 49.8915 55 32.507V14.3173c0-1.2684-.7977-2.3997-1.9923-2.8257l-20-7.13225a3.00011 3.00011 0 0 0-2.0154 0l-20 7.13225C9.79766 11.9176 9 13.0489 9 14.3173V32.507c0 17.3848 16.6944 25.8361 21.9415 28.0636Z" stroke="#EC6B1E" stroke-width="3"></path><path d="M24 31.2542 29.7458 37 41 25.7458" stroke="#FFA15E" stroke-width="3" stroke-linecap="round" stroke-linejoin="round"></path><path d="m31.1806 4.3147-20.3124 7.2046M55 14v18.5069s0 0 0 0c0 17.59-16.9452 25.9758-21.7461 27.9987" stroke="#FFA15E" stroke-width="3" stroke-linecap="round"></path></svg>