<svg xmlns="http://www.w3.org/2000/svg" fill="none" viewBox="0 0 64 64" class="UspSectionWithAdditionalPoint__icon--jjJkL"><path stroke="#EC6B1E" stroke-width="3" d="M29.957 3.953a2.118 2.118 0 0 1 4.082 0l5.517 17.785c.287.926 1.111 1.553 2.04 1.553h17.852c2.08 0 2.944 2.787 1.262 4.067L46.268 38.349c-.752.573-1.067 1.587-.78 2.514l5.516 17.784c.643 2.071-1.62 3.793-3.302 2.513L33.26 50.17a2.068 2.068 0 0 0-2.523 0L16.295 61.16c-1.682 1.28-3.945-.442-3.303-2.513l5.517-17.784c.287-.927-.028-1.941-.78-2.514L3.287 27.358c-1.682-1.28-.817-4.067 1.262-4.067H22.4c.93 0 1.754-.627 2.041-1.553l5.516-17.785Z"></path><path stroke="#FFA15E" stroke-linecap="round" stroke-width="3" d="m3.285 27.358 14.442 10.991M16.293 61.16 30.735 50.17m20.267 8.478-5.516-17.784m13.96-17.572H41.595M24.441 21.738l5.517-17.784"></path></svg>