<svg fill="none" xmlns="http://www.w3.org/2000/svg" viewBox="0 0 3519 1792"><g clip-path="url(#clip0)" shape-rendering="geometricPrecision"><path d="M0 0v1792h330.556c13.927-23.14 30.871-44.97 50.83-64.93l210.974-210.98c-125.914 60.71-281.65 38.84-386.083-65.59-132.0864-132.09-132.0865-346.24 0-478.325l340.157-340.158c-130.999 84.557-307.627 69.475-422.348-45.246-132.08651-132.087-132.08653-346.241 0-478.327L232.53 0H0zM3157.73 1792H3519V0h-453.9l-244.57 244.572c125.78-60.232 281.08-38.241 385.29 65.973 132.09 132.086 132.09 346.24 0 478.326l-448.05 448.049c132.89-112.77 332.31-106.44 457.73 18.98 132.09 132.09 132.09 346.24 0 478.33l-57.77 57.77z" fill="#FAFAFA"/><path d="M630.286 1792H48.8813l268.8367-268.84c80.724-80.72 211.603-80.72 292.327 0 73.292 73.3 80.04 187.94 20.241 268.84z" fill="#383551"/><path d="M3395.16 1792h-576.11l252.84-252.84c80.72-80.72 211.6-80.72 292.32 0 68.58 68.58 78.9 173.37 30.95 252.84zM1497.62 0c-.01 52.9169 20.17 105.838 60.54 146.212 80.73 80.724 211.61 80.724 292.33 0L1996.7 0h-499.08z" fill="#80C0B7"/><rect x="2611" y="261.052" width="413.024" height="413.413" rx="206.512" transform="rotate(-45 2611 261.052)" fill="#E3E3E3"/><path d="M3099.67 1180.03l179.54-179.54c80.73-80.724 80.73-211.603 0-292.326-3-3-6.07-5.888-9.2-8.665-15.94 32.264-37.33 62.515-64.19 89.372l-448.05 448.049c96.77-82.12 228.83-101.08 341.9-56.89z" fill="#383551"/><path d="M3099.67 1180.03l179.54-179.54c80.73-80.724 80.73-211.603 0-292.326-3-3-6.07-5.888-9.2-8.665-15.94 32.264-37.33 62.515-64.19 89.372l-448.05 448.049c96.77-82.12 228.83-101.08 341.9-56.89z" fill="#383551"/><path d="M189.808 638.074c109.744 65.64 248.678 63.622 356.626-6.057L206.277 972.175c-17.125 17.124-32.03 35.625-44.714 55.155-13.666-8.36-26.571-18.46-38.4-30.286-80.7233-80.723-80.7234-211.602 0-292.326l66.645-66.644z" fill="#80C0B7"/><rect x="530" y="1300.22" width="410.434" height="413.413" rx="205.217" transform="rotate(-45 530 1300.22)" fill="#E3E3E3"/></g><defs><clipPath id="clip0"><path shape-rendering="geometricPrecision" fill="#fff" d="M0 0h3519v1792H0z"/></clipPath></defs></svg>